<?xml version="1.0" encoding="utf-8"?>
<!-- Generator: Adobe Illustrator 19.0.0, SVG Export Plug-In . SVG Version: 6.00 Build 0)  -->
<svg version="1.1" id="Layer_1" xmlns="http://www.w3.org/2000/svg" xmlns:xlink="http://www.w3.org/1999/xlink" x="0px" y="0px"
	 viewBox="0 0 500 500" style="enable-background:new 0 0 500 500;" xml:space="preserve">
<style type="text/css">
	.st0{opacity:0.26;enable-background:new    ;}
	.st1{fill:url(#SVGID_1_);}
	.st2{filter:url(#Adobe_OpacityMaskFilter);}
	.st3{filter:url(#Adobe_OpacityMaskFilter_1_);}
	.st4{mask:url(#SVGID_2_);fill:url(#SVGID_3_);}
	.st5{opacity:0.1751;fill:url(#SVGID_4_);enable-background:new    ;}
	.st6{fill-opacity:8.040200e-002;}
	.st7{fill:#FFFFFF;}
	.st8{opacity:0.3;fill:#52A800;enable-background:new    ;}
</style>
<g id="XMLID_1_">
	<path class="st0" d="M110.6,294.1l-0.1-70.1v-21h-43V86.1L249,87l56.8,0.1c67.9,0,126.8,51.4,126.8,119.3v207H237.4
		C169.5,413.4,110.6,361.9,110.6,294.1z"/>
	
		<linearGradient id="SVGID_1_" gradientUnits="userSpaceOnUse" x1="-705.1629" y1="788.8476" x2="-704.3163" y2="788.0331" gradientTransform="matrix(215.7725 0 0 -189.3168 152295.5625 149481.9531)">
		<stop  offset="0" style="stop-color:#C7F994"/>
		<stop  offset="1" style="stop-color:#87CF3E"/>
	</linearGradient>
	<path class="st1" d="M406.4,359.2V208.8c0-50.3-44.1-91-98.5-91h-56.5v-0.1l-152.7-0.7v54.9h23.4c16.4,0,19.3,11.3,19.3,26.9
		l0.1,97.1c0,50.3,44.1,91,98.4,91h134.2C391.4,386.9,406.4,376,406.4,359.2L406.4,359.2z"/>
	<defs>
		<filter id="Adobe_OpacityMaskFilter" filterUnits="userSpaceOnUse" x="104.8" y="158.5" width="288.3" height="223.1">
			<feFlood  style="flood-color:white;flood-opacity:1" result="back"/>
			<feBlend  in="SourceGraphic" in2="back" mode="normal"/>
		</filter>
	</defs>
	<mask maskUnits="userSpaceOnUse" x="104.8" y="158.5" width="288.3" height="223.1" id="SVGID_2_">
		<g id="XMLID_4_" class="st2">
			<defs>
				<filter id="Adobe_OpacityMaskFilter_1_" filterUnits="userSpaceOnUse" x="104.8" y="158.5" width="288.3" height="223.1">
					<feFlood  style="flood-color:white;flood-opacity:1" result="back"/>
					<feBlend  in="SourceGraphic" in2="back" mode="normal"/>
				</filter>
			</defs>
			<mask maskUnits="userSpaceOnUse" x="104.8" y="158.5" width="288.3" height="223.1" id="SVGID_2_">
				<g id="XMLID_7_" class="st3">
				</g>
			</mask>
			
				<linearGradient id="SVGID_3_" gradientUnits="userSpaceOnUse" x1="-704.8582" y1="787.2162" x2="-704.1772" y2="788.0424" gradientTransform="matrix(202.1922 0 0 -156.4524 142671.3125 123515.8359)">
				<stop  offset="0" style="stop-color:#FFFFFF"/>
				<stop  offset="1" style="stop-color:#1D1D1D"/>
			</linearGradient>
			<path class="st4" d="M393.1,371.9c-34.3-23.6-58.6-50.8-79.1-86.8c-40.3-74.5-30.9-111.5-130.8-120.3c-28.8,0-48-6.4-78.4-6.4
				v10.6c0,0,12,6.1,22.5,6.1c15.7,0,18.4,10.9,18.4,25.9l0.1,93c0,48.3,42.4,87.5,94.6,87.5h128.8
				C378.8,381.6,387.3,377.9,393.1,371.9L393.1,371.9z"/>
		</g>
	</mask>
	
		<linearGradient id="SVGID_4_" gradientUnits="userSpaceOnUse" x1="-704.8582" y1="787.2162" x2="-704.1772" y2="788.0424" gradientTransform="matrix(202.1922 0 0 -156.4524 142671.3125 123515.8359)">
		<stop  offset="0" style="stop-color:#3D3D3D"/>
		<stop  offset="1" style="stop-color:#000000"/>
	</linearGradient>
	<path class="st5" d="M393.1,371.9c-34.3-23.6-58.6-50.8-79.1-86.8c-40.3-74.5-30.9-111.5-130.8-120.3c-28.8,0-48-6.4-78.4-6.4v10.6
		c0,0,12,6.1,22.5,6.1c15.7,0,18.4,10.9,18.4,25.9l0.1,93c0,48.3,42.4,87.5,94.6,87.5h128.8C378.8,381.6,387.3,377.9,393.1,371.9
		L393.1,371.9z"/>
	<path class="st6" d="M273.7,174.1c-12.2,0-23.1,4.5-31.9,13.4c-8.7,8.8-13.3,19.8-13.3,32.3v62.8H257v-62.8c0-4.8,1.6-8.5,5-11.9
		c3.4-3.4,7-5,11.7-5c4.8,0,8.4,1.6,11.8,5c3.4,3.4,5,7.2,5,11.9v62.8H319v-62.8c0-4.8,1.6-8.5,5-11.9c3.4-3.5,7-5,11.8-5
		c4.7,0,8.3,1.6,11.7,5c3.4,3.4,5,7.2,5,11.9l0.2,73.4c0,15.7-14.9,28.9-34.1,28.9l-91.9-0.4c-14.8,0-27.4-14.4-27.4-32.9V150.5h-27
		v143.6c0,15.2,5.6,28.6,16.4,39.4c9.3,9.2,20.4,14.6,32.9,15.9v0.5h102.3c15.7,0,29.5-5.8,40.7-17.2h0.1c9.5-9.7,15-21.4,16.4-34.5
		l-0.1-78.4c0-12.4-4.6-23.4-13.3-32.3c-8.7-8.8-19.6-13.4-31.9-13.4c-12,0-22.5,4.5-31,12.7C296.2,178.6,285.7,174.1,273.7,174.1
		L273.7,174.1z"/>
	<path class="st7" d="M271.4,174.9c-12.2,0-23.1,4.5-31.9,13.4c-8.7,8.8-13.3,19.8-13.3,32.3v62.8h28.5v-62.8c0-4.8,1.6-8.5,5-11.9
		c3.4-3.4,7-5,11.7-5c4.8,0,8.4,1.6,11.8,5c3.4,3.4,5,7.2,5,11.9v62.8h28.5v-62.8c0-4.8,1.6-8.5,5-11.9c3.4-3.5,7-5,11.8-5
		c4.7,0,8.3,1.6,11.7,5c3.4,3.4,5,7.2,5,11.9l0.2,73.4c0,15.7-14.9,28.9-34.1,28.9l-91.9-0.4c-14.8,0-27.4-14.4-27.4-32.9V151.3h-27
		v143.6c0,15.2,5.6,28.6,16.4,39.4c9.3,9.2,20.4,15.1,32.9,16.4l102.3,0c15.7,0,29.5-5.8,40.7-17.2h0.1c9.5-9.7,15-21.4,16.4-34.5
		l-0.1-78.4c0-12.4-4.6-23.4-13.3-32.3c-8.7-8.8-19.6-13.4-31.9-13.4c-12,0-22.5,4.5-31,12.7C293.9,179.4,283.5,174.9,271.4,174.9
		L271.4,174.9z"/>
	<path class="st8" d="M254.7,322.6v28.2h67c15.7,0,29.5-5.9,40.6-17.2h0.1c9.5-9.7,15-21.4,16.4-34.5v-16h-28.4v10.9
		c0,15.7-14.9,28.8-34,28.8L254.7,322.6L254.7,322.6z"/>
	<path class="st7" d="M239.1,407.7c-64.8,0-121-49.1-121-113.9l-0.1-78.6v-20H77V95.3l173.2,0.8l54.2,0.1c64.9,0,121,49.1,121,113.9
		v197.6H239.1L239.1,407.7z M399,354.7V210.1c0-48.3-42.4-87.5-94.6-87.5h-54.2v-0.1l-146.7-0.6v46.9h16.4
		c11.2,0,24.6,10.5,24.6,25.9l0.1,99.1c0,48.3,42.4,87.5,94.6,87.5H368C384.6,381.2,399,370.8,399,354.7L399,354.7z"/>
</g>
</svg>
