<?xml version="1.0" encoding="UTF-8" standalone="no"?>
<svg
   height="320"
   width="1000"
   version="1.1"
   id="svg347"
   sodipodi:docname="Linux_Mint_Logo_Text.svg"
   inkscape:version="1.2.1 (9c6d41e410, 2022-07-14, custom)"
   xmlns:inkscape="http://www.inkscape.org/namespaces/inkscape"
   xmlns:sodipodi="http://sodipodi.sourceforge.net/DTD/sodipodi-0.dtd"
   xmlns="http://www.w3.org/2000/svg"
   xmlns:svg="http://www.w3.org/2000/svg">
  <defs
     id="defs351" />
  <sodipodi:namedview
     id="namedview349"
     pagecolor="#ffffff"
     bordercolor="#666666"
     borderopacity="1.0"
     inkscape:showpageshadow="2"
     inkscape:pageopacity="0.0"
     inkscape:pagecheckerboard="0"
     inkscape:deskcolor="#d1d1d1"
     showgrid="false"
     inkscape:zoom="1.099"
     inkscape:cx="511.82894"
     inkscape:cy="160.14559"
     inkscape:window-width="1224"
     inkscape:window-height="994"
     inkscape:window-x="56"
     inkscape:window-y="30"
     inkscape:window-maximized="1"
     inkscape:current-layer="svg347" />
  <filter
     id="a"
     color-interpolation-filters="sRGB"
     x="-0.01064269"
     y="-0.013754146"
     width="1.0212854"
     height="1.0275083">
    <feGaussianBlur
       stdDeviation=".400625"
       id="feGaussianBlur247" />
  </filter>
  <filter
     id="b"
     color-interpolation-filters="sRGB"
     x="-0.0058648717"
     y="-0.0061415008"
     width="1.0117297"
     height="1.012283">
    <feGaussianBlur
       stdDeviation=".15992437"
       id="feGaussianBlur250" />
  </filter>
  <linearGradient
     id="c"
     gradientUnits="userSpaceOnUse"
     x1="70.49"
     x2="113.64"
     y1="496.39"
     y2="455.88">
    <stop
       offset="0"
       stop-color="#3d3d3d"
       id="stop253" />
    <stop
       offset="1"
       stop-opacity=".114"
       id="stop255" />
  </linearGradient>
  <filter
     id="d"
     color-interpolation-filters="sRGB"
     x="-2.9478187"
     y="-0.47719615"
     width="6.8956374"
     height="1.9543923">
    <feGaussianBlur
       stdDeviation="2.7119931"
       id="feGaussianBlur258" />
  </filter>
  <linearGradient
     id="e"
     gradientUnits="userSpaceOnUse"
     x1="263.39"
     x2="323.41"
     y1="356.97"
     y2="407.64"
     gradientTransform="matrix(2.45969,0,0,2.45969,-572.83,-810.3)">
    <stop
       offset="0"
       stop-color="#c7f994"
       id="stop261" />
    <stop
       offset="1"
       stop-color="#87cf3e"
       id="stop263" />
  </linearGradient>
  <filter
     id="f"
     color-interpolation-filters="sRGB"
     x="-0.03413678"
     y="-0.038078303"
     width="1.0682736"
     height="1.0761566">
    <feGaussianBlur
       stdDeviation="1.6284922"
       id="feGaussianBlur266" />
  </filter>
  <text
     fill="#fff"
     font-family="Skia"
     font-size="19.756"
     transform="matrix(1.14834 0 0 .87082 -18.77 -2.12)"
     x="342.64"
     y="980.05"
     id="text271"><tspan
       x="342.64"
       y="980.05"
       id="tspan269">freedom for the masses</tspan></text>
  <path
     d="m 64.168,23.48 h 2.208 v 17.48 h -2.208 z"
     fill-rule="evenodd"
     transform="matrix(5.9163704,0,0,5.9163704,56.475431,-2.2296018)"
     id="path273"
     style="opacity:0.513;filter:url(#d)" />
  <path
     d="m 432.597,181.379 h -5.29471 v -31.7107 c 0,-1.43877 -0.51796,-2.68572 -1.55389,-3.72164 -1.03591,-1.03592 -2.28286,-1.55148 -3.72163,-1.55148 -1.45797,0 -2.70491,0.51795 -3.74083,1.55148 -1.03592,1.03592 -1.55389,2.28287 -1.55389,3.72164 v 31.7107 h -5.27552 v -31.7107 c 0,-2.89674 1.01674,-5.39063 3.08858,-7.46006 2.07184,-2.07185 4.56573,-3.11017 7.48166,-3.11017 2.89674,0 5.39062,1.03832 7.46246,3.11017 2.07184,2.06943 3.10777,4.56332 3.10777,7.46006 z"
     fill-rule="evenodd"
     id="path275"
     transform="matrix(2.4672412,0,0,2.4672412,-552.26699,-207.40538)"
     style="opacity:0.513;filter:url(#d)" />
  <path
     d="m 457.689,170.806 c 0,2.91592 -1.03592,5.39063 -3.08858,7.46247 -2.07184,2.06945 -4.56573,3.10776 -7.48165,3.10776 -2.89674,0 -5.39063,-1.03831 -7.46247,-3.10776 -2.07184,-2.07184 -3.10776,-4.54655 -3.10776,-7.46247 v -31.7083 h 5.2947 v 31.7107 c 0,1.45796 0.51796,2.68572 1.55388,3.72164 1.03592,1.03832 2.28287,1.55389 3.72165,1.55389 1.45796,0 2.7049,-0.51797 3.74082,-1.55389 1.03592,-1.03592 1.55388,-2.26128 1.55388,-3.72164 v -31.7107 h 5.27553 z"
     fill-rule="evenodd"
     id="path277"
     transform="matrix(2.4672412,0,0,2.4672412,-552.26699,-207.40538)"
     style="opacity:0.513;filter:url(#d)" />
  <path
     d="m 89.624,23.328 h 2.432 l 1.984,5.472 1.984,-5.472 h 2.424 l -3.2,8.816 3.2,8.816 H 96.024 L 94.04,35.488 92.056,40.96 h -2.432 l 3.2,-8.816 z"
     fill-rule="evenodd"
     transform="matrix(5.9163704,0,0,5.9163704,56.475431,-2.2296018)"
     id="path279"
     style="opacity:0.513;filter:url(#d)" />
  <path
     d="m 403.374,135.932 c -1.41959,0 -2.68572,-1.09348 -2.68572,-2.57062 v -0.63306 -7.7886 h -0.80572 v -2.64735 l 2.6916,0.0192 h 0.61388 c 1.41959,0 2.68571,1.07429 2.68571,2.55144 v 11.069 H 403.374 Z"
     fill-rule="evenodd"
     id="path281"
     transform="matrix(2.4672412,0,0,2.4672412,-552.26699,-207.40538)"
     style="opacity:0.513;filter:url(#d)" />
  <g
     fill-rule="evenodd"
     transform="matrix(2.4672412,0,0,2.4672412,-576.9394,-1085.7432)"
     id="g293"
     style="opacity:0.513;filter:url(#d)">
    <path
       d="m 558.313,537.379 h -6.8294 v -59.3544 c 0,-0.40286 -0.13428,-1.03592 -0.42204,-1.86082 -0.55633,-1.59225 -1.55388,-2.80083 -3.01185,-3.62573 -1.17021,-0.63306 -2.5898,-0.94 -4.2396,-0.94 -0.0767,0 -0.21102,0.0384 -0.42204,0.0959 -0.21102,0.0768 -0.34531,0.11511 -0.42205,0.11511 -0.40285,0 -1.03591,0.24939 -1.86082,0.72898 -1.38122,0.74816 -2.3596,1.86082 -2.91592,3.31879 -0.40286,0.90163 -0.61388,1.63061 -0.61388,2.16776 v 59.3544 h -6.82941 v -59.3544 c 0,-0.0576 -0.0384,-0.36449 -0.1151,-0.92082 -0.21102,-0.84409 -0.5947,-1.66899 -1.15102,-2.49389 -1.24694,-1.72654 -2.82001,-2.74327 -4.77675,-3.01184 h -1.43878 -0.42204 -0.40286 c -0.3453,0 -0.97837,0.24939 -1.88,0.72898 -2.01429,1.03592 -3.14613,2.66654 -3.43389,4.89185 -0.0576,0.0767 -0.0959,0.17265 -0.0959,0.30694 v 59.8532 h -7.05961 v -59.5463 c 0,-1.38123 0.30694,-2.83919 0.92082,-4.35471 0.28775,-0.63306 0.67143,-1.34286 1.15102,-2.18694 0.95919,-1.72654 2.43633,-3.20368 4.41226,-4.41226 1.95674,-1.20857 4.02858,-1.88001 6.17716,-2.01429 0.53715,-0.0767 1.3045,-0.1151 2.28286,-0.0959 0.0575,-0.0192 0.23021,0.0192 0.51796,0.0959 0.26857,0.0575 0.44123,0.0959 0.51796,0.0959 0.61388,0 1.78409,0.34531 3.52981,1.03592 0.26857,0.0767 0.57551,0.21102 0.92082,0.42204 1.18939,0.69062 2.43633,1.72654 3.74083,3.10777 1.11265,-1.17021 2.07184,-2.03348 2.91592,-2.58981 2.20613,-1.45796 5.08369,-2.18694 8.59431,-2.16776 0.0767,-0.0192 0.24939,0.0192 0.51796,0.0959 0.28775,0.0575 0.46041,0.0959 0.53714,0.0959 0.61388,0 1.72654,0.30694 3.31879,0.94001 3.66409,1.45795 6.11961,3.97103 7.36655,7.57756 0.61388,1.86083 0.92081,3.31878 0.92081,4.35471 v 59.5463 z"
       id="path283" />
    <path
       d="m 128.488,23.656 h 2.944 V 40.96 h -2.944 z"
       transform="matrix(2.39797,0,0,2.39797,256.73,439.16)"
       id="path285" />
    <path
       d="m 605.812,537.379 h -6.82941 v -28.1233 c 0,-0.13429 -0.0408,-0.47959 -0.1151,-1.03592 -0.55632,-2.62817 -2.16776,-4.31634 -4.87266,-5.08369 -0.42204,-0.13429 -1.24935,-0.21102 -2.49389,-0.21102 -0.0767,0 -0.2302,0.0384 -0.46041,0.1151 -0.24939,0.0767 -0.36209,0.0959 -0.36209,0.0959 -0.34771,0 -1.01913,0.24939 -1.97593,0.72899 -1.88,0.90163 -2.97347,2.49388 -3.31878,4.77674 -0.0767,0.0767 -0.1175,0.17265 -0.1175,0.30694 v 28.4303 h -7.05721 v -41.4944 h 7.05721 c -0.0552,0.63546 -0.0552,1.17021 0,1.6498 2.37878,-1.09346 4.91343,-1.6498 7.61834,-1.6498 0.0743,0 0.26617,0.0408 0.63306,0.11751 0.3477,0.0552 0.55633,0.0935 0.61388,0.0935 1.45796,0 3.24445,0.65224 5.31389,1.97592 1.74812,1.03832 3.14853,2.41715 4.18206,4.14608 1.45795,2.28287 2.18694,4.50817 2.18694,6.63757 v 28.5238 h -0.002 z"
       id="path287" />
    <path
       d="m 626.358,502.925 h -6.84859 v 21.3899 c 0.0767,0.19183 0.15347,0.51795 0.21102,0.92081 0.49878,2.22532 1.84404,3.74323 4.04777,4.56573 0.47959,0.13428 0.74816,0.21102 0.8249,0.21102 0.0767,0 0.0959,0.0384 0.0959,0.0959 h 0.1151 c 0.0767,0 0.21103,0.0384 0.42205,0.1151 0.19184,0.0767 0.34771,0.0959 0.40286,0.0959 h 0.36448 0.3645 v 7.05961 c -2.84159,-0.13668 -5.37144,-0.86327 -7.57757,-2.16776 -1.66898,-0.97837 -3.05022,-2.3596 -4.14608,-4.16287 -1.45557,-2.34041 -2.18455,-4.64246 -2.18455,-6.84619 v -49.0744 h 7.05721 v 20.6417 h 6.84859 v 7.15553 h 0.002 z"
       id="path289" />
    <path
       d="m 567.31,491.568 c -1.41959,0 -2.7049,-1.09347 -2.7049,-2.57061 v -0.63307 -7.78859 h -0.78653 v -2.64736 l 4.1245,0.0192 h 0.61388 c 1.43877,0 2.7049,1.07429 2.7049,2.55144 v 11.069 H 567.31 Z"
       id="path291" />
  </g>
  <path
     d="m 379.125,108.673 v 62 c 0,2.91592 1.02191,5.39691 3.09375,7.46875 1.94604,1.94379 4.27802,2.97534 6.96875,3.09375 v 0.0312 h 0.53125 5.375 v -5.3125 h -5.375 c -1.72641,0 -2.71408,-0.49039 -3.75,-1.46875 -1.03591,-0.95679 -1.5625,-2.1067 -1.5625,-3.46875 V 108.6729 H 379.125 Z"
     fill-rule="evenodd"
     id="path295"
     transform="matrix(2.4672412,0,0,2.4672412,-552.26699,-207.40538)"
     style="opacity:0.513;filter:url(#d)" />
  <path
     d="M 798.83335,236.50225 H 782.03514 V 90.508825 c 0,-0.990911 -0.33029,-2.548042 -1.03809,-4.57704 -1.3684,-3.916442 -3.82206,-6.889174 -7.40822,-8.918172 -2.87835,-1.557131 -6.3701,-2.312109 -10.4281,-2.312109 -0.18866,0 -0.51904,0.09445 -1.03808,0.235885 -0.51905,0.188904 -0.84936,0.283135 -1.03812,0.283135 -0.99088,0 -2.54801,0.613422 -4.57704,1.793064 -3.39737,1.840242 -5.80388,4.577041 -7.17226,8.163195 -0.99091,2.21773 -1.50995,4.010795 -1.50995,5.332018 V 236.50222 H 731.02705 V 90.508801 c 0,-0.141679 -0.0945,-0.896533 -0.28311,-2.264932 -0.51905,-2.0762 -1.46278,-4.105198 -2.83116,-6.134197 -3.06708,-4.246753 -6.93635,-6.747593 -11.74932,-7.408192 h -3.53895 -1.03809 -0.99091 c -0.84933,0 -2.40649,0.613422 -4.62422,1.793065 -4.95453,2.548042 -7.7385,6.558861 -8.4463,12.032434 -0.14168,0.188658 -0.23589,0.424666 -0.23589,0.754977 V 236.50227 H 679.92465 V 90.036835 c 0,-3.397397 0.75498,-6.983527 2.26493,-10.711236 0.70778,-1.557132 1.65151,-3.30302 2.83116,-5.379195 2.35931,-4.246753 5.99261,-7.88006 10.85279,-10.852792 4.81297,-2.972707 9.90905,-4.624241 15.1939,-4.954529 1.32122,-0.188658 3.20866,-0.28311 5.61512,-0.235884 0.14144,-0.04723 0.56625,0.04723 1.27402,0.235884 0.6606,0.141433 1.08529,0.235885 1.27403,0.235885 1.50995,0 4.3883,0.849355 8.68223,2.548042 0.6606,0.188658 1.41558,0.519043 2.26494,1.038087 2.92553,1.698711 5.99261,4.246753 9.20128,7.644151 2.73677,-2.878354 5.09608,-5.00173 7.17226,-6.37013 5.42639,-3.586129 12.5043,-5.379194 21.13934,-5.332017 0.18865,-0.04723 0.61342,0.04723 1.27402,0.235884 0.70777,0.141432 1.13246,0.235884 1.32119,0.235884 1.50996,0 4.24676,0.754977 8.1632,2.312133 9.01252,3.586105 15.05234,9.767503 18.11943,18.638449 1.50995,4.577065 2.26491,8.16317 2.26491,10.711237 V 236.50213 Z"
     fill="#bfff80"
     fill-rule="evenodd"
     id="path303"
     style="stroke-width:2.45969" />
  <path
     d="m 814.87881,134.43342 h 17.36448 v 102.06354 h -17.36448 z"
     fill="#bfff80"
     fill-rule="evenodd"
     id="path305"
     style="stroke-width:5.89826" />
  <path
     d="m 915.66616,236.50225 h -16.79823 v -69.1746 c 0,-0.33031 -0.10036,-1.17964 -0.28311,-2.54804 -1.36837,-6.46449 -5.33202,-10.61686 -11.98523,-12.5043 -1.03809,-0.33032 -3.07302,-0.51905 -6.1342,-0.51905 -0.18866,0 -0.56622,0.0944 -1.13247,0.28311 -0.61342,0.18866 -0.89062,0.23589 -0.89062,0.23589 -0.85526,0 -2.50675,0.61342 -4.86018,1.79309 -4.62422,2.21773 -7.31381,6.13417 -8.16317,11.7493 -0.18866,0.18865 -0.28901,0.42466 -0.28901,0.75497 v 69.92973 H 847.77139 V 134.43899 h 17.35855 c -0.13578,1.56303 -0.13578,2.87835 0,4.05799 5.85106,-2.68957 12.08551,-4.05799 18.73875,-4.05799 0.18276,0 0.6547,0.10035 1.55713,0.28904 0.85524,0.13577 1.3684,0.22998 1.50996,0.22998 3.58613,0 7.98034,1.6043 13.07052,4.86015 4.29983,2.55394 7.74441,5.94544 10.28657,10.19807 3.58611,5.61515 5.37919,11.0887 5.37919,16.32636 v 70.15971 h -0.005 z"
     fill="#bfff80"
     fill-rule="evenodd"
     id="path307"
     style="stroke-width:2.45969" />
  <path
     d="m 966.20295,151.75609 h -16.84541 v 52.61252 c 0.18866,0.47185 0.37749,1.274 0.51905,2.26491 1.22684,5.4736 4.53576,9.20719 9.95626,11.23028 1.17964,0.33029 1.84024,0.51904 2.029,0.51904 0.18865,0 0.23588,0.0945 0.23588,0.23589 h 0.28311 c 0.18866,0 0.51907,0.0944 1.03811,0.28311 0.47187,0.18866 0.85526,0.23588 0.99091,0.23588 h 0.89651 0.89656 v 17.36446 c -6.98943,-0.33619 -13.21208,-2.12338 -18.63848,-5.33202 -4.10517,-2.40649 -7.50259,-5.80389 -10.19807,-10.23937 -3.58025,-5.75668 -5.37331,-11.41901 -5.37331,-16.83951 V 83.383472 h 17.35855 v 50.772188 h 16.8454 v 17.60038 h 0.005 z"
     fill="#bfff80"
     fill-rule="evenodd"
     id="path309"
     style="stroke-width:2.45969" />
  <path
     d="m 820.96318,123.82139 c -3.49175,0 -6.65322,-2.6896 -6.65322,-6.3229 v -1.55716 -19.157516 h -1.93462 v -6.511685 l 10.14499,0.04723 h 1.50996 c 3.53893,0 6.65321,2.642421 6.65321,6.275752 v 27.226309 h -9.72032 z"
     fill="#bfff80"
     fill-rule="evenodd"
     id="path311"
     style="stroke-width:2.45969" />
  <path
     d="m 435.50255,133.39533 h 13.02336 v 103.10163 h -13.02336 z"
     id="path313"
     style="fill:#ffffff;fill-rule:evenodd;stroke-width:5.89826" />
  <path
     d="m 514.20786,236.50225 h -13.02335 v -77.99849 c 0,-3.53893 -1.27402,-6.60604 -3.82208,-9.15408 -2.54802,-2.54805 -5.61513,-3.81616 -9.15406,-3.81616 -3.58615,0 -6.65324,1.27399 -9.20128,3.81616 -2.54804,2.54804 -3.82209,5.61515 -3.82209,9.15408 v 77.99849 h -12.97614 v -77.99849 c 0,-7.12508 2.50086,-13.25928 7.59694,-18.34944 5.09609,-5.09611 11.23029,-7.65005 18.40257,-7.65005 7.12508,0 13.25925,2.55394 18.35534,7.65005 5.09608,5.09016 7.64415,11.22436 7.64415,18.34944 z"
     id="path315"
     style="fill:#ffffff;fill-rule:evenodd;stroke-width:2.45969" />
  <path
     d="m 575.9264,210.49595 c 0,7.17226 -2.54804,13.25928 -7.59695,18.35536 -5.09608,5.09021 -11.23028,7.64413 -18.40254,7.64413 -7.12508,0 -13.25928,-2.55392 -18.35536,-7.64413 -5.09609,-5.09608 -7.64413,-11.1831 -7.64413,-18.35536 v -77.99259 h 13.02332 v 77.99849 c 0,3.58613 1.27402,6.60604 3.82207,9.15408 2.54804,2.55395 5.61515,3.82209 9.1541,3.82209 3.58613,0 6.65322,-1.27405 9.20126,-3.82209 2.54804,-2.54804 3.82206,-5.56205 3.82206,-9.15408 v -77.99849 h 12.97617 z"
     id="path317"
     style="fill:#ffffff;fill-rule:evenodd;stroke-width:2.45969" />
  <path
     d="m 585.64872,132.49879 h 14.34458 l 11.70215,32.2753 11.70216,-32.2753 h 14.29738 l -18.87444,51.99909 18.87444,51.99908 h -14.29738 l -11.70216,-32.27529 -11.70215,32.27529 h -14.34458 l 18.87444,-51.99908 z"
     id="path319"
     style="fill:#ffffff;fill-rule:evenodd;stroke-width:5.89826" />
  <path
     d="m 442.32834,124.71672 c -3.49175,0 -6.60604,-2.68962 -6.60604,-6.32293 v -1.55713 -19.157543 h -1.98182 v -6.511661 l 6.6205,0.04723 h 1.50995 c 3.49175,0 6.60602,2.642421 6.60602,6.275752 v 27.226302 h -6.14861 z"
     id="path321"
     style="fill:#ffffff;fill-rule:evenodd;stroke-width:2.45969" />
  <path
     d="M 382.68331,57.668028 V 210.16881 c 0,7.17226 2.51359,13.27472 7.60967,18.37081 4.78666,4.78112 10.5226,7.31841 17.14097,7.60966 v 0.0768 h 1.30671 13.22083 v -13.06711 h -13.22083 c -4.24644,0 -6.6758,-1.2062 -9.22384,-3.61267 -2.54802,-2.3534 -3.84327,-5.18183 -3.84327,-8.53205 V 57.667782 h -12.99024 z"
     id="path323"
     style="fill:#ffffff;fill-rule:evenodd;stroke-width:2.45969" />
  <path
     d="m 331.79,510.933 c -21.2901,0 -39.7658,-16.1399 -39.7658,-37.411 l -0.0191,-21.9923 v -6.58604 h -13.4978 v -36.6513 l 56.9204,0.26806 17.8056,0.0383 c 21.3093,0 39.7658,16.1207 39.7658,37.4109 v 64.9233 h -61.209 z"
     fill-rule="evenodd"
     filter="url(#f)"
     opacity="0.26"
     transform="matrix(2.5652845,0,0,2.5652845,-688.06648,-1031.7213)"
     id="path327" />
  <path
     d="M 299.9295,235.72007 V 114.1002 c 0,-40.631861 -35.63254,-73.568832 -79.59753,-73.568832 h -45.63143 v -0.09814 L 51.285099,39.893964 v 44.375021 h 18.945025 c 13.224056,0 15.56022,9.128795 15.56022,21.764095 l 0.09814,78.4501 c 0,40.63186 35.632796,73.56883 79.548586,73.56883 h 108.42806 c 13.90057,0 26.0641,-8.80311 26.0641,-22.33211 z"
     fill="url(#e)"
     fill-rule="evenodd"
     id="path329"
     style="fill:url(#e);stroke-width:2.45969" />
  <path
     d="m 142.938,500.531 c -10.7518,-7.40935 -18.3668,-15.9203 -24.7812,-27.1875 -12.6444,-23.3581 -9.68791,-34.9533 -41,-37.6875 -9.03629,0 -15.0512,-2 -24.5625,-2 v 3.3125 c 0,10e-6 3.75868,1.90749 7.0625,1.90749 4.9267,10e-6 5.78125,3.41765 5.78125,8.125 l 0.03125,29.155 c 0,15.1376 13.2952,27.4062 29.6562,27.4062 h 40.375 c 2.96358,0 5.62572,-1.16787 7.4375,-3.03125 z"
     fill="url(#c)"
     filter="url(#a)"
     opacity="0.175"
     transform="matrix(2.578985,0,0,2.578985,-79.46538,-1044.856)"
     id="path331"
     style="fill:url(#c)" />
  <path
     d="m 105.518,438.54 c -3.83671,0 -7.24574,1.42445 -9.98484,4.1914 -2.73772,2.76548 -4.1752,6.21796 -4.17519,10.1142 v 19.6947 h 8.93296 v -19.6947 c 0,-1.49338 0.48728,-2.66108 1.55355,-3.73818 1.06977,-1.08055 2.2026,-1.56971 3.67352,-1.56971 1.50175,0 2.61758,0.4867 3.68969,1.56971 1.06628,1.0771 1.55356,2.2448 1.55356,3.73818 v 19.6947 h 8.93297 v -19.6947 c 0,-1.49338 0.48728,-2.66108 1.55356,-3.73818 1.07211,-1.08301 2.18794,-1.56971 3.68971,-1.56971 1.47093,0 2.60373,0.48916 3.6735,1.56971 1.06627,1.0771 1.55356,2.2448 1.55356,3.73818 l 0.0486,23.0122 c 0,4.90894 -4.67486,9.04618 -10.6807,9.04618 l -28.8055,-0.11326 c -4.63471,0 -8.59313,-4.51117 -8.59313,-10.3085 v -43.3353 h -8.44746 v 45.0021 c 0,4.77471 1.74718,8.96178 5.14616,12.3476 2.90519,2.8676 6.39907,4.56445 10.3247,4.98427 v 0.16191 h 32.0745 c 4.92872,0 9.25884,-1.83265 12.7521,-5.38904 h 0.0162 c 2.97102,-3.05245 4.70787,-6.70998 5.12997,-10.8262 l -0.0324,-24.5819 c 0,-3.89625 -1.43744,-7.34873 -4.17521,-10.1142 -2.73906,-2.76695 -6.14812,-4.1914 -9.98482,-4.1914 -3.76604,0 -7.06133,1.40042 -9.72593,3.96479 -2.65681,-2.56014 -5.92908,-3.96479 -9.69356,-3.96479 z"
     fill-opacity="0.08"
     fill-rule="evenodd"
     filter="url(#b)"
     transform="matrix(2.578985,0,0,2.578985,-79.46538,-1044.856)"
     id="path333" />
  <path
     d="m 190.82503,86.724346 c -9.89481,0 -18.68665,3.673621 -25.75074,10.809551 -7.06056,7.132113 -10.76778,16.036023 -10.76776,26.084273 v 50.79211 h 23.03798 v -50.79211 c 0,-3.85138 1.25668,-6.86288 4.00656,-9.6407 2.75894,-2.78671 5.68048,-4.04826 9.47396,-4.04826 3.87298,0 6.7507,1.2552 9.51566,4.04826 2.74991,2.77782 4.00661,5.78932 4.00661,9.6407 v 50.79211 h 23.03795 v -50.79211 c 0,-3.85138 1.25671,-6.86288 4.00664,-9.6407 2.76494,-2.79306 5.64265,-4.04826 9.5157,-4.04826 3.79351,0 6.71498,1.26155 9.47387,4.04826 2.74991,2.77782 4.00661,5.78932 4.00661,9.6407 l 0.1252,59.34814 c 0,12.66007 -12.05639,23.32994 -27.54533,23.32994 l -74.28903,-0.29209 c -11.95284,0 -22.16154,-11.63424 -22.16154,-26.58556 V 67.657666 H 108.7315 V 183.7174 c 0,12.3139 4.50596,23.11228 13.27188,31.84438 7.49243,7.39547 16.50311,12.18938 26.62712,13.27209 l 82.71962,-2e-4 c 12.71109,0 23.87838,-4.72636 32.88754,-13.89823 h 0.0418 c 7.66218,-7.87224 12.14152,-17.30493 13.23011,-27.92068 l -0.0834,-63.39654 c 0,-10.04835 -3.70709,-18.95226 -10.76776,-26.084274 -7.064,-7.13593 -15.85592,-10.809551 -25.75074,-10.809551 -9.71255,0 -18.21105,3.611662 -25.08293,10.225128 -6.85189,-6.60257 -15.29098,-10.225128 -24.99955,-10.225128 z"
     fill="#ffffff"
     fill-rule="evenodd"
     id="path335"
     style="stroke-width:2.45969" />
  <path
     d="m 177.27706,206.08326 v 22.75214 h 54.11318 c 12.71104,0 23.81236,-4.74076 32.82137,-13.91263 h 0.077 c 7.6622,-7.87226 12.13224,-17.28633 13.22083,-27.90223 V 174.10717 H 254.5267 v 8.83951 c 0,12.66015 -12.02882,23.29019 -27.51778,23.29019 l -49.73173,-0.15373 z"
     fill="#52a800"
     fill-rule="evenodd"
     opacity="0.3"
     id="path337"
     style="stroke-width:2.45969" />
  <path
     d="m 164.71543,274.89309 c -52.36705,0 -97.811545,-39.69915 -97.811545,-92.01946 l -0.04698,-63.52789 V 103.14615 H 33.656501 V 22.42896 l 140.006539,0.659344 43.79626,0.09421 c 52.41402,0 97.81154,39.651925 97.81154,92.018966 V 274.89292 H 164.71567 Z M 293.9377,232.05587 V 115.20165 c 0,-39.039705 -34.23618,-70.686076 -76.4784,-70.686076 h -43.84324 v -0.09421 L 55.036865,43.903234 V 81.81296 h 13.283236 c 9.018207,0 19.869867,8.474788 19.869867,20.91125 l 0.09421,80.10276 c 0,39.03971 34.236422,70.68608 76.431422,70.68608 h 104.17918 c 13.35585,0 25.04285,-8.45816 25.04285,-21.45703 z"
     fill="#ffffff"
     fill-rule="evenodd"
     id="path339"
     style="stroke-width:2.45969" />
  <text
     fill="#fff"
     font-family="Skia"
     font-size="19.756"
     font-weight="bold"
     transform="matrix(1.14834 0 0 .87082 -18.77 -2.12)"
     x="337.79"
     y="1011.98"
     id="text345"><tspan
       x="337.79"
       y="1011.98"
       id="tspan343">from freedom came elegance</tspan></text>
</svg>
